<?xml version="1.0" standalone="no"?>
<!DOCTYPE svg PUBLIC "-//W3C//DTD SVG 20010904//EN"
 "http://www.w3.org/TR/2001/REC-SVG-20010904/DTD/svg10.dtd">
<svg version="1.0" xmlns="http://www.w3.org/2000/svg"
 width="1280.000000pt" height="1280.000000pt" viewBox="0 0 1280.000000 1280.000000"
 preserveAspectRatio="xMidYMid meet">
<metadata>
Created by potrace 1.15, written by Peter Selinger 2001-2017
</metadata>
<g transform="translate(0.000000,1280.000000) scale(0.100000,-0.100000)"
fill="#000000" stroke="none">
<path d="M6374 10005 c-17 -11 -22 -29 -27 -98 -12 -156 -62 -301 -124 -360
-16 -15 -49 -33 -74 -40 -33 -10 -46 -20 -53 -40 -13 -35 15 -67 58 -67 77 -1
165 -73 187 -152 34 -129 -47 -319 -179 -420 -101 -77 -155 -89 -427 -98 -274
-8 -327 -21 -449 -115 -43 -33 -47 -34 -41 -13 30 94 117 216 182 255 41 24
60 28 167 33 141 7 175 19 245 85 68 64 96 129 95 225 0 61 -5 84 -27 127
-139 269 -515 218 -578 -78 -15 -67 -2 -99 40 -99 35 0 61 31 61 73 0 15 9 44
19 65 69 135 249 150 345 29 26 -32 31 -49 34 -106 5 -80 -18 -135 -70 -174
-49 -36 -92 -47 -189 -47 -114 0 -179 -24 -253 -91 -92 -84 -174 -236 -206
-381 -14 -60 -24 -72 -35 -39 -9 30 -106 126 -167 165 -146 93 -358 117 -358
40 0 -27 39 -54 77 -54 105 -1 215 -51 301 -136 77 -77 117 -158 133 -269 13
-92 21 -105 60 -105 35 0 45 18 52 95 16 180 147 340 324 395 55 17 93 20 252
20 213 0 287 12 389 62 79 39 185 135 227 207 17 28 32 51 35 51 3 0 19 -23
35 -51 42 -72 148 -168 227 -207 102 -50 176 -62 389 -62 159 0 197 -3 252
-20 177 -55 308 -215 324 -395 7 -77 17 -95 52 -95 39 0 47 13 60 105 7 54 23
104 46 151 71 145 235 253 388 254 38 0 77 27 77 54 0 81 -219 51 -372 -51
-62 -40 -158 -141 -158 -164 0 -5 -4 -9 -8 -9 -5 0 -16 33 -26 74 -9 40 -40
120 -68 177 -40 82 -65 118 -117 170 -85 85 -144 109 -270 109 -97 0 -140 11
-189 47 -52 39 -75 94 -70 174 3 57 8 74 34 106 96 121 276 106 345 -29 10
-21 19 -50 19 -65 0 -42 26 -73 61 -73 42 0 55 32 40 99 -52 245 -343 339
-516 166 -61 -61 -89 -129 -89 -215 -1 -96 27 -161 95 -225 70 -66 104 -78
245 -85 107 -5 126 -9 167 -33 65 -39 152 -161 182 -255 6 -21 2 -19 -42 14
-116 89 -207 114 -426 114 -274 0 -375 27 -484 127 -92 84 -153 221 -153 340
1 101 100 203 198 203 41 0 68 33 56 67 -7 20 -20 30 -53 40 -25 7 -58 25 -74
40 -62 59 -112 204 -124 360 -5 69 -10 87 -27 98 -11 8 -23 15 -26 15 -3 0
-15 -7 -26 -15z m40 -389 c3 -14 25 -53 49 -89 l44 -65 -28 -16 c-15 -9 -39
-30 -53 -47 l-26 -31 -26 31 c-14 17 -38 38 -53 47 l-28 16 44 65 c24 36 46
75 49 89 3 13 10 24 14 24 4 0 11 -11 14 -24z"/>
<path d="M5558 9330 c-105 -56 -104 -211 2 -267 52 -28 82 -29 136 -4 54 25
84 73 84 138 0 117 -118 187 -222 133z"/>
<path d="M7100 9331 c-110 -58 -107 -221 4 -272 54 -25 84 -24 136 4 105 55
107 205 4 264 -48 28 -98 29 -144 4z"/>
<path d="M8416 8488 c-181 -186 -256 -269 -256 -285 0 -13 11 -29 25 -39 23
-15 27 -15 48 -1 13 8 131 126 263 261 240 248 262 277 233 312 -30 37 -53 19
-313 -248z"/>
<path d="M4050 8711 c-5 -11 -10 -26 -10 -33 0 -7 123 -136 273 -286 190 -190
279 -272 294 -272 21 0 53 33 53 54 0 6 -123 133 -272 283 -224 225 -277 273
-300 273 -17 0 -31 -7 -38 -19z"/>
<path d="M4086 8234 c-41 -41 -3 -228 70 -342 39 -61 135 -158 165 -167 34
-11 20 -21 -55 -39 -40 -9 -120 -40 -177 -68 -82 -40 -118 -65 -170 -117 -85
-85 -109 -144 -109 -270 0 -97 -11 -140 -47 -189 -68 -92 -229 -97 -310 -10
-69 74 -69 202 0 276 30 33 90 62 127 62 66 0 100 77 45 102 -28 12 -108 -3
-163 -31 -180 -92 -220 -343 -77 -486 61 -61 129 -89 215 -89 99 -1 163 27
229 100 64 70 81 122 81 244 0 84 3 103 26 149 17 33 45 67 77 93 49 38 176
108 197 108 5 0 -6 -21 -26 -47 -92 -121 -105 -172 -114 -448 -6 -196 -10
-240 -29 -297 -42 -130 -168 -255 -294 -293 -78 -23 -158 -29 -201 -15 -77 25
-145 113 -146 186 0 43 -32 71 -67 58 -20 -7 -30 -20 -40 -53 -22 -75 -86
-125 -208 -164 -58 -18 -176 -37 -233 -37 -40 0 -72 -23 -72 -52 0 -25 35 -48
74 -48 55 0 174 -19 231 -37 122 -39 186 -89 208 -164 10 -33 20 -46 40 -53
35 -13 67 15 67 58 1 73 69 161 146 186 43 14 123 8 201 -15 124 -37 248 -158
293 -286 20 -56 23 -93 30 -299 9 -282 21 -332 115 -454 33 -43 34 -47 13 -41
-53 16 -163 81 -203 120 -68 66 -78 94 -85 230 -7 139 -19 174 -85 244 -63 68
-129 96 -225 95 -66 0 -83 -4 -138 -34 -90 -48 -142 -118 -160 -218 -29 -163
79 -317 249 -353 67 -15 99 -2 99 40 0 35 -31 61 -73 61 -15 0 -44 9 -65 19
-135 69 -150 249 -29 345 34 27 48 31 110 34 87 3 134 -19 181 -86 28 -39 30
-49 36 -165 7 -152 29 -207 121 -291 72 -67 227 -147 335 -172 41 -10 74 -21
74 -26 0 -4 -4 -8 -9 -8 -22 0 -118 -90 -162 -153 -103 -147 -135 -377 -53
-377 27 0 54 39 54 78 1 152 109 316 254 387 47 23 97 39 151 46 92 13 105 21
105 60 0 35 -18 45 -95 52 -180 16 -340 147 -395 324 -17 55 -20 93 -20 252 0
213 -12 287 -62 389 -39 79 -135 185 -207 227 -28 17 -51 32 -51 35 0 3 23 19
51 35 72 42 168 148 207 227 50 102 62 176 62 389 0 159 3 197 20 252 56 180
211 305 403 326 71 8 87 18 87 57 0 32 -17 40 -105 53 -54 7 -104 23 -151 46
-145 71 -253 235 -254 388 0 61 -49 96 -84 61z m-675 -1817 l22 -16 -31 -26
c-18 -15 -39 -39 -48 -54 l-16 -28 -65 44 c-36 24 -75 46 -89 49 -34 9 -30 16
19 37 23 9 62 32 87 50 l45 33 27 -37 c14 -20 37 -44 49 -52z"/>
<path d="M8650 8230 c-13 -13 -20 -34 -20 -57 -1 -105 -51 -215 -136 -301 -77
-77 -158 -117 -269 -133 -88 -13 -105 -21 -105 -53 0 -39 16 -49 87 -57 192
-21 347 -146 403 -326 17 -55 20 -93 20 -252 0 -213 12 -287 62 -389 39 -79
135 -185 207 -227 28 -16 51 -32 51 -35 0 -3 -23 -18 -51 -35 -73 -43 -171
-151 -209 -229 -48 -102 -60 -176 -60 -387 0 -159 -3 -197 -20 -252 -55 -177
-215 -308 -395 -324 -77 -7 -95 -17 -95 -52 0 -39 13 -47 105 -60 54 -7 104
-23 151 -46 145 -71 253 -235 254 -387 0 -39 27 -78 54 -78 81 0 51 219 -51
372 -40 62 -141 158 -164 158 -5 0 -9 4 -9 8 0 5 33 16 74 26 108 25 263 105
335 172 92 84 114 139 121 291 6 116 8 126 36 165 47 67 94 89 181 86 62 -3
76 -7 110 -34 121 -96 106 -276 -29 -345 -21 -10 -51 -19 -68 -19 -40 0 -81
-39 -73 -69 19 -72 179 -36 268 60 147 157 105 386 -88 486 -43 22 -66 27
-127 27 -96 1 -161 -27 -225 -95 -66 -70 -78 -105 -85 -244 -7 -136 -17 -164
-85 -230 -40 -39 -150 -104 -203 -120 -21 -6 -20 -2 13 41 94 122 106 172 115
454 7 206 10 243 30 299 45 128 169 249 293 286 78 23 158 29 201 15 77 -25
145 -113 146 -186 0 -43 32 -71 67 -58 20 7 30 20 40 53 22 75 86 125 208 164
58 18 176 37 234 37 32 0 44 5 57 25 15 23 15 27 0 50 -13 20 -25 25 -57 25
-58 0 -176 19 -234 37 -122 39 -186 89 -208 164 -10 33 -20 46 -40 53 -35 13
-67 -15 -67 -58 -1 -73 -69 -161 -146 -186 -43 -14 -123 -8 -201 15 -126 38
-252 163 -294 293 -19 57 -23 101 -29 297 -9 276 -22 327 -114 448 -20 26 -31
47 -25 47 26 0 174 -86 214 -125 68 -66 78 -93 85 -230 7 -139 19 -174 85
-244 64 -68 129 -96 225 -95 61 0 84 5 127 27 96 49 152 124 171 225 30 166
-90 328 -265 357 -48 8 -78 -5 -86 -36 -8 -30 33 -69 73 -69 37 0 97 -29 127
-62 69 -74 69 -202 0 -276 -81 -87 -242 -82 -310 10 -36 49 -47 92 -47 189 0
126 -24 185 -109 270 -52 52 -88 77 -170 117 -57 28 -137 59 -177 68 -76 18
-89 28 -54 39 11 4 49 35 83 69 100 100 167 247 167 367 0 82 -36 113 -80 69z
m966 -1816 c31 -8 31 -20 0 -28 -14 -3 -53 -25 -89 -49 l-65 -44 -16 28 c-9
15 -30 39 -47 53 l-31 26 31 26 c17 14 38 38 47 53 l16 28 65 -44 c36 -24 75
-46 89 -49z"/>
<path d="M5365 7963 c-23 -5 -45 -30 -45 -50 0 -7 9 -22 20 -33 20 -20 33 -20
1060 -20 1027 0 1040 0 1060 20 24 24 25 39 6 66 -14 19 -37 19 -1048 20 -568
1 -1042 0 -1053 -3z"/>
<path d="M4822 7948 c-28 -28 -10 -55 131 -196 127 -127 147 -143 173 -140 21
2 31 11 38 31 10 26 4 34 -134 172 -147 148 -175 166 -208 133z"/>
<path d="M7770 7815 c-138 -138 -144 -146 -134 -172 7 -20 17 -29 38 -31 26
-3 46 13 173 140 141 141 159 168 131 196 -33 33 -61 15 -208 -133z"/>
<path d="M4826 7434 c-14 -14 -16 -123 -16 -1055 0 -698 3 -1047 10 -1060 12
-22 59 -26 78 -7 17 17 17 2109 0 2126 -17 17 -54 15 -72 -4z"/>
<path d="M7902 7438 c-17 -17 -17 -2159 0 -2176 7 -7 24 -12 38 -12 14 0 31 5
38 12 9 9 12 264 12 1084 0 962 -2 1074 -16 1088 -18 19 -55 21 -72 4z"/>
<path d="M5276 7364 c-9 -8 -16 -31 -16 -49 0 -61 12 -65 196 -65 l164 0 0
-845 0 -845 -163 0 c-182 0 -197 -5 -197 -67 0 -60 13 -63 252 -63 188 0 217
2 229 17 12 13 15 148 19 747 l5 731 47 -120 c236 -605 530 -1341 543 -1361
21 -33 78 -34 99 -1 8 12 55 128 104 257 50 129 161 417 247 640 86 223 173
449 193 503 20 53 39 97 42 97 3 0 5 -333 5 -741 0 -722 0 -741 19 -755 16
-11 64 -14 231 -14 193 0 213 2 228 18 22 25 21 75 -1 95 -16 14 -44 17 -180
17 l-162 0 0 845 0 845 163 0 c183 0 197 5 197 68 0 60 -9 62 -240 62 -115 0
-215 -3 -224 -6 -8 -3 -34 -54 -57 -112 -44 -114 -153 -397 -429 -1111 -94
-245 -175 -452 -180 -460 -7 -13 -10 -12 -18 9 -6 14 -123 311 -262 660 -138
349 -283 715 -322 812 -38 98 -76 185 -84 193 -23 23 -425 22 -448 -1z"/>
<path d="M3519 7296 c-125 -85 -67 -276 84 -276 64 0 109 28 136 84 27 54 26
83 -2 136 -42 79 -145 105 -218 56z"/>
<path d="M9120 7301 c-38 -20 -80 -89 -80 -130 1 -44 35 -107 72 -129 49 -30
124 -30 168 1 67 45 87 125 50 196 -38 75 -133 103 -210 62z"/>
<path d="M3520 5758 c-68 -47 -88 -131 -47 -202 59 -103 209 -101 264 4 28 52
29 82 4 136 -37 80 -148 111 -221 62z"/>
<path d="M9109 5756 c-37 -25 -69 -85 -69 -130 0 -39 43 -108 80 -127 132 -71
281 71 211 201 -42 80 -148 106 -222 56z"/>
<path d="M4952 4997 c-96 -96 -142 -149 -142 -164 0 -21 33 -53 54 -53 17 0
306 294 306 311 0 24 -27 49 -53 49 -15 0 -68 -46 -165 -143z"/>
<path d="M7646 5124 c-9 -8 -16 -23 -16 -33 0 -17 289 -311 306 -311 21 0 54
32 54 53 0 15 -45 67 -143 165 -145 145 -168 159 -201 126z"/>
<path d="M5340 4870 c-24 -24 -25 -39 -6 -66 14 -19 37 -19 1066 -19 1029 0
1052 0 1066 19 19 27 18 42 -6 66 -20 20 -33 20 -1060 20 -1027 0 -1040 0
-1060 -20z"/>
<path d="M5083 4668 c-6 -7 -16 -49 -22 -93 -16 -111 -56 -192 -133 -269 -86
-85 -196 -135 -300 -136 -39 0 -78 -27 -78 -54 0 -77 212 -53 358 40 61 39
158 135 167 165 11 34 21 20 39 -55 9 -40 40 -120 68 -177 40 -82 65 -118 117
-170 85 -85 144 -109 270 -109 97 0 140 -11 189 -47 92 -68 97 -229 10 -310
-97 -91 -257 -61 -319 59 -10 21 -19 50 -19 65 0 42 -26 73 -61 73 -42 0 -55
-32 -40 -99 52 -245 343 -338 516 -166 61 61 89 129 89 215 1 96 -27 161 -95
225 -70 66 -105 78 -244 85 -136 7 -164 17 -230 85 -39 40 -104 150 -120 203
-6 21 -2 20 42 -14 116 -90 207 -114 428 -114 268 -1 351 -20 463 -109 119
-95 196 -287 163 -409 -22 -79 -110 -151 -187 -152 -44 0 -71 -32 -58 -68 7
-21 19 -29 51 -37 106 -26 183 -181 200 -403 5 -73 9 -86 30 -99 21 -14 25
-14 47 0 20 14 24 26 30 105 16 218 93 371 199 397 32 8 44 16 51 37 13 36
-14 68 -58 68 -75 1 -164 72 -187 151 -10 31 -10 59 -2 115 29 203 189 365
389 394 38 5 146 10 239 10 221 0 312 24 428 114 44 34 48 35 42 14 -16 -53
-81 -163 -120 -203 -66 -68 -94 -78 -230 -85 -139 -7 -174 -19 -244 -85 -68
-64 -96 -129 -95 -225 0 -61 5 -84 27 -127 138 -268 515 -218 578 78 15 67 2
99 -40 99 -35 0 -61 -31 -61 -73 0 -34 -30 -94 -62 -124 -74 -69 -202 -69
-276 0 -87 81 -82 242 10 310 49 36 92 47 189 47 126 0 185 24 270 109 52 52
77 88 117 170 28 57 59 137 68 177 10 41 21 74 26 74 4 0 8 -4 8 -9 0 -23 96
-124 158 -164 128 -86 313 -125 357 -77 15 17 16 24 7 45 -12 25 -15 27 -122
43 -95 14 -174 55 -248 128 -77 77 -117 158 -133 269 -13 92 -21 105 -60 105
-35 0 -45 -18 -52 -95 -16 -180 -147 -340 -324 -395 -55 -17 -93 -20 -252 -20
-211 0 -285 -12 -387 -60 -78 -38 -186 -136 -229 -209 -16 -28 -32 -51 -35
-51 -3 0 -18 23 -35 51 -42 72 -148 168 -227 207 -102 50 -176 62 -389 62
-159 0 -197 3 -252 20 -177 55 -308 215 -324 395 -3 33 -10 68 -15 78 -10 20
-61 23 -75 5z m1343 -1268 c14 -16 38 -37 53 -46 l28 -16 -44 -65 c-24 -36
-46 -75 -49 -89 -8 -31 -20 -31 -28 0 -3 14 -25 53 -49 89 l-44 65 28 16 c15
9 38 30 51 46 13 16 24 29 26 29 2 1 15 -12 28 -29z"/>
<path d="M8155 4606 c-12 -18 -14 -30 -6 -43 16 -29 546 -553 559 -553 18 0
52 38 52 58 0 27 -540 562 -567 562 -13 0 -30 -11 -38 -24z"/>
<path d="M4292 4364 c-139 -135 -257 -255 -263 -266 -15 -28 14 -70 47 -66 35
4 544 502 544 532 0 29 -18 46 -50 46 -20 0 -80 -53 -278 -246z"/>
<path d="M5560 3737 c-108 -57 -107 -212 1 -267 48 -25 94 -25 139 -1 110 58
107 221 -4 272 -54 25 -84 24 -136 -4z"/>
<path d="M7104 3741 c-54 -25 -84 -73 -84 -138 0 -119 121 -189 224 -130 103
59 101 209 -4 264 -52 28 -82 29 -136 4z"/>
</g>
</svg>
